<?xml version="1.0" encoding="utf-8"?>
<!-- Generator: Adobe Illustrator 25.0.1, SVG Export Plug-In . SVG Version: 6.00 Build 0)  -->
<svg version="1.1" id="Layer_1" xmlns="http://www.w3.org/2000/svg" xmlns:xlink="http://www.w3.org/1999/xlink" x="0px" y="0px"
	 width="181.3px" height="26px" viewBox="0 0 181.3 26" style="enable-background:new 0 0 181.3 26;" xml:space="preserve">
<style type="text/css">
	.st0{fill:#03363D;}
</style>
<path class="st0" d="M6.8,13.9L17.1,3.6c1.4-1.4,3.8-1.4,5.2,0L23,4.4l1.6-1.6L23.8,2c-2.4-2.4-6.1-2.4-8.4,0L5.2,12.3L6.8,13.9z"/>
<path class="st0" d="M20.4,6.9l-1.6-1.6L8.5,15.6c-1.4,1.4-3.8,1.4-5.2,0s-1.4-3.8,0-5.2l0,0l8.8-8.8L10.6,0L1.8,8.8
	c-2.4,2.2-2.4,6,0,8.4s6,2.4,8.4,0.2c0,0,0,0,0.2-0.2L20.4,6.9z M30.6,8.8c-2.4-2.4-6.1-2.4-8.4,0L12,19.1l1.6,1.6l10.2-10.2
	c1.4-1.4,3.8-1.4,5.2,0c0.6,0.6,1.1,1.6,1.1,2.5c0,0.9-0.3,1.9-1.1,2.7l-8.8,8.8l1.6,1.6l8.8-8.8C33,14.8,33,11.2,30.6,8.8z"/>
<path class="st0" d="M25.6,12.1L15.3,22.4c-1.4,1.4-3.8,1.4-5.2,0l-0.6-0.8l-1.6,1.6L8.7,24c2.4,2.4,6.1,2.4,8.4,0l10.2-10.2
	L25.6,12.1z"/>
<path class="st0" d="M41.6,15.8c0.2,0.6,0.5,1.1,0.9,1.6c0.6,0.3,1.3,0.6,1.9,0.5c0.6,0,1.3-0.2,1.9-0.5c0.5-0.3,0.6-0.9,0.6-1.4
	c0-0.3,0-0.5-0.2-0.8c-0.2-0.2-0.3-0.3-0.5-0.5c-0.2-0.2-0.5-0.3-0.8-0.3L44.6,14l-0.9-0.3c-0.5-0.2-1.1-0.3-1.6-0.6
	c-0.5-0.2-0.8-0.5-1.1-0.8c-0.3-0.3-0.6-0.6-0.8-1.1c-0.2-0.5-0.3-0.9-0.3-1.4s0.2-1.1,0.3-1.4c0.2-0.5,0.5-0.8,0.9-1.1
	c0.5-0.3,0.9-0.6,1.4-0.8c0.6-0.2,1.3-0.2,1.9-0.2c1.3,0,2.4,0.3,3.2,0.9s1.3,1.6,1.4,2.5l-2.2,0.2c-0.2-0.5-0.3-0.9-0.8-1.3
	c-0.5-0.3-1.1-0.5-1.7-0.5s-1.1,0.2-1.6,0.5c-0.3,0.3-0.6,0.8-0.6,1.1s0,0.5,0.2,0.6c0.3,0.3,0.5,0.5,0.6,0.6s0.5,0.3,0.8,0.3
	c0.3,0.2,0.6,0.2,0.9,0.3l0.9,0.3c0.6,0.2,1.1,0.3,1.6,0.6c0.5,0.2,0.8,0.5,1.1,0.8c0.3,0.3,0.6,0.6,0.8,0.9
	c0.2,0.5,0.3,0.9,0.3,1.4c0,0.6-0.2,1.1-0.3,1.6c-0.2,0.5-0.6,0.9-0.9,1.3c-0.5,0.3-0.9,0.6-1.6,0.8c-0.6,0.2-1.3,0.3-1.9,0.3
	c-1.1,0-2.4-0.3-3.3-0.9c-0.9-0.6-1.6-1.7-1.7-2.8L41.6,15.8z M58.5,6.3c0.9,0,1.9,0.2,2.7,0.5c0.8,0.3,1.4,0.8,2,1.4
	c0.6,0.6,1.1,1.4,1.3,2.2c0.3,0.9,0.5,1.7,0.5,2.7c0,0.9-0.2,1.9-0.5,2.8c-0.3,0.8-0.8,1.6-1.4,2.2l1.7,2v0.6h-2.2l-1.1-1.7
	c-0.5,0.2-0.9,0.3-1.4,0.5c-0.5,0.2-1.1,0.2-1.6,0.2c-0.9,0-1.9-0.2-2.7-0.5s-1.4-0.8-2-1.4c-0.6-0.6-0.9-1.3-1.3-2
	c-0.3-0.9-0.5-1.9-0.5-2.7c0-0.9,0.2-1.9,0.5-2.7c0.3-0.8,0.8-1.6,1.3-2c0.6-0.6,1.3-1.1,2-1.4C56.8,6.5,57.6,6.3,58.5,6.3z
	 M58.5,8.2c-0.6,0-1.3,0.2-1.7,0.3s-0.9,0.6-1.3,0.9c-0.3,0.5-0.6,0.9-0.8,1.6s-0.3,1.3-0.3,1.9c0,0.6,0.2,1.3,0.3,1.9
	c0.2,0.6,0.5,1.1,0.8,1.6c0.3,0.5,0.8,0.8,1.3,0.9c0.5,0.3,1.1,0.3,1.7,0.3c0.6,0,1.3-0.2,1.7-0.3c0.5-0.2,0.9-0.6,1.3-0.9
	c0.3-0.5,0.6-0.9,0.8-1.6s0.3-1.3,0.3-1.9c0-0.6-0.2-1.3-0.3-1.9c-0.2-0.5-0.5-1.1-0.8-1.6c-0.3-0.5-0.8-0.8-1.3-0.9
	C59.8,8.4,59.1,8.2,58.5,8.2z M73.6,18c0.8,0,1.6-0.3,2.2-0.8c0.5-0.6,0.8-1.4,0.8-2.7V6.6h2.2v7.9c0,0.8-0.2,1.6-0.3,2.4
	c-0.2,0.6-0.6,1.1-1.1,1.6s-0.9,0.8-1.6,0.9c-1.4,0.3-3,0.3-4.4,0c-0.6-0.2-1.1-0.5-1.6-0.9s-0.8-0.9-1.1-1.6
	c-0.3-0.8-0.3-1.6-0.3-2.4V6.6h2.2v7.9c0,1.1,0.3,2,0.8,2.7C71.9,17.6,72.7,18,73.6,18z M81,18.9l4.6-12.3h3.5l4.6,12.3v0.6h-2.2
	L90,15.8h-5.5l-1.3,3.6h-2L81,18.9z M85.1,13.9h4.3l-0.6-2c-0.3-0.8-0.5-1.4-0.6-1.9C88,9.5,87.8,9,87.7,8.7H87l-0.3,0.5
	c0,0.2-0.2,0.5-0.3,0.6s-0.2,0.5-0.3,0.8c-0.2,0.3-0.3,0.6-0.5,1.1L85.1,13.9z M106.2,19.5H104l-3.9-5h-1.4v5h-2.2V6.6h4.3
	c0.6,0,1.3,0,1.9,0.2c0.6,0.2,1.1,0.3,1.6,0.6c0.9,0.6,1.6,1.7,1.6,3c0,0.5-0.2,1.1-0.3,1.6c-0.2,0.5-0.3,0.8-0.6,1.1
	c-0.3,0.3-0.6,0.6-0.9,0.8c-0.6,0-0.9,0.2-1.4,0.3l3.8,4.7V19.5z M98.7,12.4h1.9c0.8,0,1.4-0.2,2-0.5c0.5-0.3,0.8-0.9,0.8-1.6
	s-0.2-1.3-0.8-1.6c-0.6-0.3-1.3-0.5-2-0.5h-1.9V12.4z M109.1,6.6h8.4v2h-6.1V12h5.7v1.9h-5.7v3.6h6.3v2h-8.5V6.6z M122.6,15.8
	c0.2,0.6,0.5,1.1,0.9,1.6c0.6,0.3,1.3,0.6,1.9,0.5c0.6,0,1.3-0.2,1.9-0.5c0.5-0.3,0.6-0.9,0.6-1.4c0-0.3,0-0.5-0.2-0.8
	c-0.2-0.2-0.3-0.3-0.5-0.5c-0.2-0.2-0.5-0.3-0.8-0.3l-0.9-0.3l-1.1-0.3c-0.5-0.2-1.1-0.3-1.6-0.6c-0.5-0.2-0.8-0.5-1.1-0.8
	s-0.6-0.6-0.8-1.1c-0.3-0.9-0.3-1.9,0-2.8c0.2-0.5,0.5-0.8,0.9-1.1s0.9-0.6,1.4-0.8c0.6-0.2,1.3-0.2,2-0.2c1.3,0,2.4,0.3,3.2,0.9
	c0.8,0.6,1.3,1.6,1.4,2.5l-2.4,0.2c0-0.5-0.3-0.9-0.6-1.3c-0.5-0.3-1.1-0.5-1.7-0.5c-0.6,0-1.1,0.2-1.6,0.5
	c-0.3,0.3-0.6,0.8-0.6,1.1s0,0.5,0.2,0.6c0.2,0.2,0.3,0.3,0.5,0.5c0.2,0.2,0.5,0.3,0.8,0.3c0.3,0.2,0.6,0.2,0.9,0.3l0.9,0.3
	c0.6,0.2,1.1,0.3,1.6,0.6c0.5,0.2,0.8,0.5,1.1,0.8c0.3,0.3,0.6,0.6,0.8,0.9c0.2,0.5,0.3,0.9,0.3,1.4c0,0.6-0.2,1.1-0.3,1.6
	c-0.2,0.5-0.6,0.9-0.9,1.3c-0.5,0.3-0.9,0.6-1.6,0.8c-0.6,0.2-1.3,0.3-2,0.3c-1.1,0-2.4-0.3-3.3-0.9s-1.6-1.7-1.6-2.8L122.6,15.8z
	 M133.5,6.6h4.7c0.8,0,1.4,0.2,2.2,0.3c0.5,0.2,1.1,0.5,1.4,0.8s0.6,0.8,0.8,1.3c0.2,0.5,0.3,1.1,0.3,1.6c0,0.6-0.2,1.3-0.3,1.7
	c-0.2,0.5-0.5,0.9-0.9,1.3s-0.9,0.6-1.6,0.8c-0.6,0.2-1.4,0.3-2,0.3h-2.2v5h-2.2L133.5,6.6z M135.7,12.6h2.2c0.3,0,0.8,0,1.1-0.2
	c0.3,0,0.6-0.2,0.8-0.3c0.3-0.2,0.5-0.3,0.6-0.6c0.2-0.3,0.2-0.6,0.2-0.9s0-0.6-0.2-0.9s-0.3-0.5-0.6-0.6c-0.3-0.2-0.5-0.3-0.8-0.3
	c-0.3,0-0.8-0.2-1.1-0.2h-2.2V12.6z M143.4,18.9L148,6.6h3.5l4.6,12.3v0.6h-2.2l-1.3-3.8h-5.7l-1.3,3.6h-2.2V18.9z M147.5,13.9h4.3
	l-0.6-2c-0.3-0.8-0.5-1.4-0.6-1.9l-0.5-1.3h-0.6l-0.2,0.6c0,0.2-0.2,0.5-0.3,0.6c-0.2,0.3-0.2,0.5-0.3,0.8c-0.2,0.3-0.3,0.6-0.5,1.1
	L147.5,13.9z M169.7,16.1c-0.2,0.5-0.5,0.9-0.8,1.4c-0.3,0.5-0.8,0.8-1.3,1.1s-1.1,0.6-1.6,0.8c-0.6,0.2-1.4,0.3-2,0.3
	c-0.9,0-1.7-0.2-2.7-0.5c-0.8-0.3-1.4-0.8-2-1.4c-0.6-0.6-0.9-1.3-1.3-2c-0.3-0.8-0.5-1.7-0.5-2.7c0-0.9,0.2-1.9,0.5-2.7
	c0.3-0.8,0.8-1.6,1.3-2.2c0.6-0.6,1.3-1.1,2-1.4c0.8-0.3,1.7-0.5,2.7-0.5c1.3,0,2.5,0.3,3.6,0.9c0.9,0.6,1.6,1.6,2,2.7l-2.4,0.5
	c-0.3-0.6-0.8-1.1-1.3-1.6c-0.6-0.3-1.3-0.6-2-0.6c-0.6,0-1.1,0.2-1.7,0.3c-0.5,0.3-0.9,0.6-1.3,0.9c-0.3,0.5-0.6,0.9-0.8,1.6
	c-0.2,0.6-0.3,1.3-0.3,1.9s0.2,1.3,0.3,1.9c0.2,0.5,0.5,1.1,0.8,1.6c0.3,0.5,0.8,0.8,1.3,0.9c0.5,0.3,1.1,0.3,1.7,0.3
	c0.8,0,1.4-0.2,2-0.6c0.5-0.3,0.9-0.9,1.3-1.4L169.7,16.1z M172.7,6.6h8.4v2h-6.1V12h5.7v1.9h-5.7v3.6h6.3v2h-8.5V6.6z"/>
</svg>
